<?xml version="1.0" encoding="utf-8"?>
<!-- Generator: Adobe Illustrator 25.0.1, SVG Export Plug-In . SVG Version: 6.00 Build 0)  -->
<svg version="1.1" id="Layer_1" xmlns="http://www.w3.org/2000/svg" xmlns:xlink="http://www.w3.org/1999/xlink" x="0px" y="0px"
	 viewBox="0 0 150 150" style="enable-background:new 0 0 150 150;" xml:space="preserve">
<style type="text/css">
	.st0{fill:#FFFFFF;}
	.st1{fill:#232020;}
</style>
<rect x="0" class="st0" width="150" height="150"/>
<path class="st1" d="M143.1,46c-0.3-7.4-1.5-12.5-3.2-16.9c-1.8-4.7-4.5-8.9-8-12.3c-3.5-3.5-7.7-6.3-12.3-8
	c-4.4-1.7-9.5-2.9-16.9-3.2C95.2,5.2,92.9,5.1,74,5.1S52.7,5.2,45.3,5.5S32.8,7,28.4,8.7c-4.7,1.8-8.9,4.5-12.3,8
	c-3.5,3.5-6.3,7.7-8,12.3c-1.8,4.5-3,9.6-3.3,17c-0.4,7.4-0.4,9.8-0.4,28.7S4.5,96,4.8,103.4s1.5,12.5,3.2,16.9
	c1.8,4.7,4.5,8.9,8,12.3c3.5,3.5,7.7,6.3,12.3,8c4.4,1.7,9.5,2.9,16.9,3.2s9.8,0.4,28.7,0.4s21.3-0.1,28.7-0.4
	c7.4-0.3,12.5-1.5,16.9-3.2c9.4-3.6,16.7-11,20.4-20.4c1.7-4.4,2.9-9.5,3.2-16.9s0.4-9.8,0.4-28.7S143.5,53.4,143.1,46z
	 M130.6,102.8c-0.3,6.8-1.4,10.5-2.4,12.9c-2.3,6.1-7.2,10.9-13.2,13.2c-2.4,1-6.1,2.1-12.9,2.4c-7.3,0.3-9.5,0.4-28.1,0.4
	s-20.8-0.1-28.1-0.4c-6.8-0.3-10.5-1.4-12.9-2.4c-3-1.1-5.8-2.9-8-5.2c-2.3-2.3-4.1-5-5.2-8c-1-2.4-2.1-6.1-2.4-12.9
	c-0.3-7.3-0.4-9.5-0.4-28.1s0.1-20.8,0.4-28.1c0.3-6.8,1.4-10.5,2.4-12.9c1.1-3,2.9-5.8,5.2-8c2.3-2.3,5-4.1,8-5.2
	c2.4-1,6.1-2.1,12.9-2.4c7.3-0.3,9.5-0.4,28.1-0.4s20.8,0.1,28.1,0.4c6.8,0.3,10.5,1.4,12.9,2.4c3,1.1,5.8,2.9,8,5.2
	c2.3,2.3,4.1,5,5.2,8c1,2.4,2.1,6.1,2.4,12.9c0.3,7.3,0.4,9.5,0.4,28.1S130.9,95.5,130.6,102.8z"/>
<path class="st1" d="M74,38.9c-19.7,0-35.7,16-35.7,35.7s16,35.7,35.7,35.7s35.7-16,35.7-35.7S93.7,38.9,74,38.9z M74,97.9
	c-12.8,0-23.2-10.4-23.2-23.2S61.2,51.5,74,51.5s23.2,10.4,23.2,23.2S86.8,97.9,74,97.9z"/>
<path class="st1" d="M119.5,37.5c0,4.6-3.7,8.3-8.3,8.3c-4.6,0-8.3-3.7-8.3-8.3s3.7-8.3,8.3-8.3C115.7,29.2,119.5,32.9,119.5,37.5z"
	/>
</svg>
