<?xml version="1.0" encoding="utf-8"?>
<!-- Generator: Adobe Illustrator 25.0.1, SVG Export Plug-In . SVG Version: 6.00 Build 0)  -->
<svg version="1.1" id="Layer_1" xmlns="http://www.w3.org/2000/svg" xmlns:xlink="http://www.w3.org/1999/xlink" x="0px" y="0px"
	 viewBox="0 0 150 150" style="enable-background:new 0 0 150 150;" xml:space="preserve">
<style type="text/css">
	.st0{fill:#FFFFFF;}
	.st1{fill:#232020;}
</style>
<rect x="0" class="st0" width="150" height="150"/>
<path class="st1" d="M129.6,11H20.4c-5.2,0-9.5,4.1-9.5,9.2v109.7c0,5.1,4.2,9.2,9.5,9.2h109.1c5.2,0,9.5-4.1,9.5-9.2V20.2
	C139,15.1,134.8,11,129.6,11z M30.7,118.1V60.5h19.2v57.6H30.7z M40.3,52.6L40.3,52.6L40.3,52.6c-6.5,0-10.7-4.4-10.7-10
	c0-5.7,4.3-10,10.8-10c6.6,0,10.6,4.3,10.7,10C51.2,48.2,47,52.6,40.3,52.6z M119,118.1H99.8V87.3c0-7.7-2.8-13-9.7-13
	c-5.3,0-8.4,3.6-9.8,7c-0.5,1.2-0.6,3-0.6,4.7v32.2H60.5l0,0c0,0,0.3-52.2,0-57.6h19.2v8.2c2.5-3.9,7.1-9.5,17.3-9.5
	c12.6,0,22.1,8.2,22.1,25.9L119,118.1L119,118.1z"/>
</svg>
