<svg id="Layer_1" data-name="Layer 1" xmlns="http://www.w3.org/2000/svg" viewBox="0 0 50 50"><defs><style>.cls-1{fill:#2f2f2f;}</style></defs><title>Prefooter_Vectors</title><path class="cls-1" d="M25,7.5a16.93,16.93,0,0,1,4.64.63A17.82,17.82,0,0,1,33.81,9.9a17.7,17.7,0,0,1,6.29,6.29,17.82,17.82,0,0,1,1.77,4.17,17.34,17.34,0,0,1,0,9.28,17.83,17.83,0,0,1-1.77,4.17,17.7,17.7,0,0,1-6.29,6.29,17.82,17.82,0,0,1-4.17,1.77,17.34,17.34,0,0,1-9.28,0,17.83,17.83,0,0,1-4.17-1.77A17.7,17.7,0,0,1,9.9,33.81a17.83,17.83,0,0,1-1.77-4.17,17.34,17.34,0,0,1,0-9.28A17.82,17.82,0,0,1,9.9,16.19,17.7,17.7,0,0,1,16.19,9.9a17.83,17.83,0,0,1,4.17-1.77A16.92,16.92,0,0,1,25,7.5Zm0,32.81a14.75,14.75,0,0,0,3.81-.5,15.68,15.68,0,0,0,3.53-1.41,15.41,15.41,0,0,0,3.08-2.22,15.62,15.62,0,0,0,2.47-2.93q-.22-.51-.43-1a3,3,0,0,1-.21-1.09,6.77,6.77,0,0,1,.06-1c0-.26.08-.48.11-.66s.06-.35.08-.5a1.34,1.34,0,0,0-.06-.52,4.09,4.09,0,0,0-.3-.7q-.21-.41-.62-1.06,0-.12.06-.32a3.46,3.46,0,0,0,.06-.43,3.6,3.6,0,0,0,0-.42.71.71,0,0,0-.08-.32,6,6,0,0,1-.93-.19,2.49,2.49,0,0,1-.85-.41l.1-.09a2.67,2.67,0,0,0-.44.15l-.44.18-.44.15a1.78,1.78,0,0,1-.46.06l-.27,0,.05-.12-.52.17a1.54,1.54,0,0,1-.52.1,1.57,1.57,0,0,1-.5-.12,5.94,5.94,0,0,1-.66-.29,3.2,3.2,0,0,1-.58-.38.55.55,0,0,1-.25-.39l0-.05a.94.94,0,0,0-.22-.19l-.26-.17a1,1,0,0,1-.21-.19.36.36,0,0,1-.09-.24l.19-.15-.39-.05-.14-.51c0,.06.08.08.16.07a.31.31,0,0,0,.18-.07l-.62-.32L28.93,21a2.79,2.79,0,0,1-.11-1.37,1.7,1.7,0,0,1,.45-.79,5.76,5.76,0,0,1,.76-.62,3.58,3.58,0,0,0,.83-.83l-.05-.21,1.13-1.37.26,0q.48,0,1.08,0t1.21-.12l1.21-.17q.6-.09,1.09-.21A15.85,15.85,0,0,0,35.64,14q-.61-.58-1.27-1.11l-.47.2a3.36,3.36,0,0,0-.54.31,2.12,2.12,0,0,0-.44.4.73.73,0,0,0-.18.46l.1.33a1.37,1.37,0,0,1-.68.62,2.56,2.56,0,0,1-.78.14h-.82a1.83,1.83,0,0,0-.81.15l-.27-.58.26-1-.29-.43,3-.92a1.36,1.36,0,0,0-.62-.72,1.91,1.91,0,0,0-.93-.24v-.17l1-.15a15.6,15.6,0,0,0-3.31-1.2A15.06,15.06,0,0,0,22.06,10a15.43,15.43,0,0,0-2.81.85,16,16,0,0,0-2.61,1.36A14.43,14.43,0,0,0,14.34,14a1,1,0,0,1,.69.23,3.69,3.69,0,0,1,.44.5,5,5,0,0,0,.42.5.79.79,0,0,0,.6.23l.27-.21,0-.38.56-.8-.44-1.26.27-.17a.58.58,0,0,1,.28-.12,4.65,4.65,0,0,1,.79.05,1.07,1.07,0,0,1,.47.2,1.74,1.74,0,0,1,.36.39q.17.25.48.64l.62-.48.56.23a7.35,7.35,0,0,1,.76.38,4.71,4.71,0,0,1,.67.45.64.64,0,0,1,.29.44.5.5,0,0,1-.2.41,1.71,1.71,0,0,1-.49.26,3.88,3.88,0,0,1-.64.16l-.64.13a2,2,0,0,0-.5.18.33.33,0,0,0-.21.28l1,.32a6,6,0,0,1-.74.54,7.44,7.44,0,0,1-.81.44l.07.29-1.57.62v.48l-.12.05.09-.6-.07,0c-.08,0-.13,0-.15.05a.17.17,0,0,0,0,.12,1.16,1.16,0,0,0,0,.14.14.14,0,0,1,0,.1l-.22-.12,0,.07a.35.35,0,0,0,.06.15,1.48,1.48,0,0,0,.14.2l.2.25s0,.07-.08.1l-.16.08-.14,0s0,0,0,0,.19,0,.09,0a2.13,2.13,0,0,0-.42.17,2.09,2.09,0,0,0-.54.4,1,1,0,0,0-.26.74q0,.29,0,.56a2.1,2.1,0,0,1,0,.56,2.05,2.05,0,0,0-.72-1,2,2,0,0,0-1.16-.34l-.73.07.36.24L13.28,21a3.28,3.28,0,0,0-.62,0,2.07,2.07,0,0,0-.59.14,1.37,1.37,0,0,0-.5.35l-.1.77a1.52,1.52,0,0,0,.25.9.94.94,0,0,0,.83.35,3.21,3.21,0,0,0,1-.16q.5-.16,1-.35a7.69,7.69,0,0,1-.34.73,2.83,2.83,0,0,0-.27.74l.22.1a.69.69,0,0,1,.75-.09,2.62,2.62,0,0,1,.67.55l.67.74a1.94,1.94,0,0,0,.74.54l-.58.31L15,25.8A.81.81,0,0,1,15,26q0,.12,0,.05l-.62-1a5.35,5.35,0,0,1-1.17-.18A10.18,10.18,0,0,1,12,24.38a10.63,10.63,0,0,1-1.19-.56,8.18,8.18,0,0,1-1-.64L9.69,25a14.78,14.78,0,0,0,.56,4.07A15.6,15.6,0,0,0,14.35,36a14.63,14.63,0,0,0,3.3,2.44,1.69,1.69,0,0,1,0-.72,6.45,6.45,0,0,1,.18-.72l.22-.73a2.5,2.5,0,0,0,.11-.73A4.25,4.25,0,0,0,18,34.37a11.49,11.49,0,0,0-.42-1.21q-.25-.61-.52-1.2t-.47-1.14a5.13,5.13,0,0,1-.26-1,1.3,1.3,0,0,1,.1-.79l-.26-.12a2,2,0,0,1,.28-.46l.35-.45a3.19,3.19,0,0,0,.29-.47,1.13,1.13,0,0,0,.12-.51,1,1,0,0,0-.08-.37A2.4,2.4,0,0,1,17,26.3l.36.09a1.73,1.73,0,0,1,.79-.91,2.8,2.8,0,0,1,1.24-.25,1.75,1.75,0,0,1,.36.08l.58.18.59.2.4.13q0,.12.15.16c.1,0,.15.07.15.11l0,.14.25.13.41.25.39.27.23.19a2.57,2.57,0,0,1,.85.21,11.49,11.49,0,0,1,1.15.52,14,14,0,0,1,1.26.74,11.56,11.56,0,0,1,1.15.85,6.23,6.23,0,0,1,.85.85,1.26,1.26,0,0,1,.33.74l-.58.62a3,3,0,0,1-.13,1.34,1.8,1.8,0,0,1-.58.76,4.27,4.27,0,0,1-.91.51,8.35,8.35,0,0,0-1.1.58,1.91,1.91,0,0,1-.17.74,3.54,3.54,0,0,1-.44.75,2.64,2.64,0,0,1-.62.59,1.25,1.25,0,0,1-.71.24l-.72-.55s0,.07,0,.13-.05.07-.08,0a1.11,1.11,0,0,1,.09.75,3.94,3.94,0,0,1-.29.87,7.09,7.09,0,0,1-.46.85,7.7,7.7,0,0,1-.46.66,15,15,0,0,0,1.85.36A14.45,14.45,0,0,0,25,40.31ZM16,22.59a1.85,1.85,0,0,1,.5.08l.56.18.55.22.49.21-.28,0-.28,0a1.43,1.43,0,0,1-.53-.09,3.76,3.76,0,0,1-.45-.21l-.41-.21a.86.86,0,0,0-.37-.09.68.68,0,0,0-.31.07l-.27.15s0-.07-.12-.07a1,1,0,0,1,.44-.2A2.34,2.34,0,0,1,16,22.59Zm2.31.77a3.34,3.34,0,0,1,1.28.24l-.48.15a2,2,0,0,1-.5.06,2.53,2.53,0,0,1-.62-.07.48.48,0,0,1,.17-.18A.32.32,0,0,0,18.28,23.36Zm18.56-8a.26.26,0,0,1-.05.19h.1l.1,0ZM38,17l-.48-.73q-.24-.35-.5-.69a.51.51,0,0,1-.09.22.52.52,0,0,0-.06.31.45.45,0,0,0,.13.3,1.55,1.55,0,0,0,.31.26,2.59,2.59,0,0,0,.37.21A1.9,1.9,0,0,0,38,17Z"/></svg>