<?xml version="1.0" encoding="utf-8"?>
<!-- Generator: Adobe Illustrator 25.0.1, SVG Export Plug-In . SVG Version: 6.00 Build 0)  -->
<svg version="1.1" id="Capa_1" xmlns="http://www.w3.org/2000/svg" xmlns:xlink="http://www.w3.org/1999/xlink" x="0px" y="0px"
	 viewBox="0 0 150 150" style="enable-background:new 0 0 150 150;" xml:space="preserve">
<style type="text/css">
	.st0{fill:#FFFFFF;}
	.st1{fill:#232020;}
</style>
<rect class="st0" width="150" height="150"/>
<path class="st1" d="M141.4,35.8c-4.9,2.2-10.2,3.6-15.7,4.3c5.6-3.4,9.9-8.7,12-15c-5.3,3.1-11.1,5.4-17.3,6.6
	c-5-5.3-12.1-8.6-19.9-8.6c-15.1,0-27.2,12.2-27.2,27.2c0,2.2,0.2,4.2,0.6,6.2c-22.6-1.2-42.6-12-56-28.5c-2.3,4.1-3.7,8.7-3.7,13.8
	c0,9.4,4.9,17.8,12.1,22.6C21.9,64.3,17.6,63,14,61c0,0.1,0,0.2,0,0.3c0,13.2,9.4,24.2,21.8,26.7c-2.2,0.6-4.6,0.9-7.1,0.9
	c-1.7,0-3.5-0.1-5.2-0.5c3.5,10.8,13.5,18.7,25.4,19c-9.3,7.2-21,11.6-33.7,11.6c-2.2,0-4.4-0.1-6.5-0.4
	c12.1,7.8,26.3,12.2,41.8,12.2c50.1,0,77.5-41.5,77.5-77.5c0-1.2,0-2.4-0.1-3.5C133.1,46.1,137.7,41.3,141.4,35.8z"/>
</svg>
