<?xml version="1.0" encoding="utf-8"?>
<!-- Generator: Adobe Illustrator 25.0.1, SVG Export Plug-In . SVG Version: 6.00 Build 0)  -->
<svg version="1.1" id="Layer_1" xmlns="http://www.w3.org/2000/svg" xmlns:xlink="http://www.w3.org/1999/xlink" x="0px" y="0px"
	 viewBox="0 0 64 64" style="enable-background:new 0 0 64 64;" xml:space="preserve">
<style type="text/css">
	.st0{fill:#0078D5;}
</style>
<g>
	<path class="st0" d="M63.2,57.7c-0.4-1.4-1.1-2.8-2-4.2c-1-1.4-2.1-2.5-3.3-3.4c-0.6-0.5-1.4-1-2.4-1.5c0.2-0.2,0.5-0.4,0.7-0.7
		c0.7-0.7,1.3-1.5,1.9-2.4c0.6-1.1,1-1.9,1.2-2.7c0.7-2.4,0.5-5-0.5-7.4c-1.2-2.7-3.3-4.8-6-6c-2.8-1.2-6-1.2-8.8,0
		c-2.7,1.2-4.8,3.3-6,6c-1,2.5-1.1,5-0.5,7.4c0.2,1,0.7,1.9,1.2,2.8c0.4,0.7,1.1,1.5,1.9,2.4c0.3,0.3,0.5,0.5,0.7,0.7
		c-0.7,0.3-1.2,0.7-1.9,1.2L39,50.3c-1.2,0.8-2.2,1.9-3.3,3.4c-1.9,2.7-2.8,5.7-2.8,9c0,0.6,0.4,1.1,1.1,1.1h2c0.1,0,0.3,0,0.4-0.1
		h0.1h0.2l0.1-0.1c0.3-0.3,0.3-0.5,0.3-0.8c0-1.1,0.1-2.2,0.4-3c0.2-1,0.6-1.8,1.1-2.7c1-1.6,2.4-3,4-4c1.8-1,3.7-1.5,5.7-1.5
		c1.4,0,2.9,0.3,4.5,0.9c2.7,1.1,4.8,3.2,5.9,5.9c0.6,1.5,0.9,3,0.9,4.6c0,0.1,0,0.3,0.1,0.4v0.1l0,0c0,0.6,0.7,0.6,0.9,0.6h2
		c0.6,0,1.1-0.4,1.1-1C64,61,63.8,59.5,63.2,57.7z M55,42.7c-0.7,1.7-2.1,3.1-3.8,3.8c-1.8,0.7-3.8,0.7-5.6,0
		c-1.7-0.7-3.1-2.1-3.8-3.8c-0.7-1.8-0.7-3.8,0-5.6c0.7-1.7,2.1-3.1,3.8-3.8c0.9-0.4,1.9-0.6,2.8-0.6c0.9,0,1.9,0.2,2.8,0.6
		c1.7,0.7,3.1,2.1,3.8,3.8C55.8,38.9,55.8,40.9,55,42.7z"/>
	<path class="st0" d="M33.1,45.6h-29V18.1h43.4v5h4.1V4.3h-9.5V1.2H38v3.2H13.7V1.2H9.6v3.2H0v45.4h33.1V45.6z M13.6,11.6V8.5H38
		v3.2h4.1V8.5h5.4v5.3H4.1V8.5h5.3v3.2L13.6,11.6L13.6,11.6z"/>
	<rect x="38.1" y="20.2" class="st0" width="4.1" height="4.1"/>
	<rect x="19" y="20.2" class="st0" width="4.1" height="4.1"/>
	<rect x="9.6" y="32.8" class="st0" width="4.1" height="4.1"/>
	<rect x="19" y="26.5" class="st0" width="4.1" height="4.1"/>
	<rect x="28.5" y="32.8" class="st0" width="4.1" height="4.1"/>
	<rect x="9.6" y="26.5" class="st0" width="4.1" height="4.1"/>
	<rect x="9.6" y="39.2" class="st0" width="4.1" height="4.3"/>
	<rect x="19" y="39.2" class="st0" width="4.1" height="4.1"/>
	<rect x="28.5" y="26.5" class="st0" width="4.1" height="4.1"/>
	<rect x="28.5" y="39.2" class="st0" width="4.1" height="4.1"/>
	<rect x="28.5" y="20.2" class="st0" width="4.1" height="4.1"/>
	<rect x="19" y="32.8" class="st0" width="4.1" height="4.1"/>
</g>
</svg>
